<?xml version="1.0" encoding="UTF-8" standalone="no"?> <!-- Created with Vectornator for iOS (http://vectornator.io/) --><!DOCTYPE svg PUBLIC "-//W3C//DTD SVG 1.1//EN" "http://www.w3.org/Graphics/SVG/1.1/DTD/svg11.dtd">
<svg height="100%" style="fill-rule:nonzero;clip-rule:evenodd;stroke-linecap:round;stroke-linejoin:round;" xmlns:xlink="http://www.w3.org/1999/xlink" xmlns="http://www.w3.org/2000/svg" xml:space="preserve" width="100%" xmlns:vectornator="http://vectornator.io" version="1.1" viewBox="0 0 841.995 595.35">
<metadata>
<vectornator:setting key="DimensionsVisible" value="1"/>
<vectornator:setting key="PencilOnly" value="0"/>
<vectornator:setting key="SnapToPoints" value="0"/>
<vectornator:setting key="OutlineMode" value="0"/>
<vectornator:setting key="CMYKEnabledKey" value="0"/>
<vectornator:setting key="RulersVisible" value="1"/>
<vectornator:setting key="SnapToEdges" value="0"/>
<vectornator:setting key="GuidesVisible" value="1"/>
<vectornator:setting key="DisplayWhiteBackground" value="1"/>
<vectornator:setting key="doHistoryDisabled" value="0"/>
<vectornator:setting key="SnapToGuides" value="1"/>
<vectornator:setting key="TimeLapseWatermarkDisabled" value="0"/>
<vectornator:setting key="Units" value="Millimeters"/>
<vectornator:setting key="DynamicGuides" value="0"/>
<vectornator:setting key="IsolateActiveLayer" value="0"/>
<vectornator:setting key="SnapToGrid" value="0"/>
</metadata>
<defs/>
<g id="Layer 1" vectornator:layerName="Layer 1">
<path stroke="#000000" stroke-width="4.05645" d="M318.084+29.2215L317.191+561.866" fill="none" stroke-linecap="round" opacity="1" stroke-linejoin="round"/>
<path stroke="#000000" stroke-width="4.05645" d="M139.346+341.902L738.217+341.754" fill="none" stroke-linecap="round" opacity="1" stroke-linejoin="round"/>
<path d="M436.889+280.011L674.438+516.944C674.438+516.944+639.307+450.21+583.122+369.693C526.937+289.175+436.889+280.011+436.889+280.011Z" opacity="1" fill="#ff5d5d"/>
<path stroke="#000000" stroke-width="2.01817" d="M408.25+235.897L416.539+243.948L408.487+252.236L400.199+244.185L408.25+235.897Z" fill="none" stroke-linecap="butt" opacity="1" stroke-linejoin="miter"/>
<path stroke="#36ce43" stroke-width="4.05645" d="M186.554+29.9073L656.079+500.645L716.156+560.877" fill="none" stroke-linecap="round" opacity="1" stroke-linejoin="round"/>
<path stroke="#36ce43" stroke-width="4.05645" d="M630.016+29.9073L137.331+523.96" fill="none" stroke-linecap="round" opacity="1" stroke-linejoin="round"/>
<path stroke="#6190ff" stroke-width="4.05645" d="M178.806+562.245C178.806+562.245+230.881+451.77+289.049+376.356C379.747+258.768+451.811+281.491+451.811+281.491C451.811+281.491+527.42+291.958+591.276+379.937C652.805+464.71+696.103+558.143+696.103+558.143" fill="none" stroke-linecap="round" opacity="1" stroke-linejoin="round"/>
<g opacity="1">
<path d="M305.142+41.4896L301.174+34.4016L304.534+34.4016L306.726+38.6096L308.854+34.4016L312.182+34.4016L305.59+46.7056L302.342+46.7056L305.142+41.4896Z" opacity="1" fill="#000000"/>
</g>
<g opacity="1">
<path d="M542.221+91.7545L542.221+105.035L539.325+105.035L539.325+91.7545L542.221+91.7545Z" opacity="1" fill="#000000"/>
</g>
<g opacity="1">
<path d="M348.446+176.739L351.342+176.739L351.342+177.747C352.131+176.99+353.017+176.611+353.998+176.611C355.214+176.611+356.142+177.123+356.782+178.147C357.433+177.113+358.361+176.595+359.566+176.595C359.95+176.595+360.313+176.651+360.654+176.763C360.995+176.875+361.289+177.051+361.534+177.291C361.779+177.531+361.974+177.843+362.118+178.227C362.262+178.611+362.334+179.075+362.334+179.619L362.334+184.947L359.438+184.947L359.438+180.899C359.438+180.483+359.409+180.142+359.35+179.875C359.291+179.609+359.206+179.401+359.094+179.251C358.982+179.102+358.851+179.001+358.702+178.947C358.553+178.894+358.393+178.867+358.222+178.867C357.294+178.867+356.83+179.545+356.83+180.899L356.83+184.947L353.934+184.947L353.934+180.899C353.934+180.483+353.907+180.139+353.854+179.867C353.801+179.595+353.723+179.379+353.622+179.219C353.521+179.059+353.39+178.95+353.23+178.891C353.07+178.833+352.883+178.803+352.67+178.803C352.489+178.803+352.318+178.83+352.158+178.883C351.998+178.937+351.857+179.041+351.734+179.195C351.611+179.35+351.515+179.563+351.446+179.835C351.377+180.107+351.342+180.462+351.342+180.899L351.342+184.947L348.446+184.947L348.446+176.739Z" opacity="1" fill="#000000"/>
</g>
<g opacity="1">
<path d="M445.012+263.045L445.012+272.453L441.876+272.453L441.876+263.045L439.3+263.045L439.3+260.389L447.588+260.389L447.588+263.045L445.012+263.045Z" opacity="1" fill="#000000"/>
</g>
<g opacity="1">
<path d="M493.712+281.697L493.712+287.489L490.816+287.489L490.816+281.697L489.776+281.697L489.776+279.281L490.816+279.281L490.816+278.049C490.816+277.366+490.88+276.822+491.008+276.417C491.115+276.076+491.285+275.758+491.52+275.465C491.755+275.172+492.029+274.918+492.344+274.705C492.659+274.492+492.997+274.326+493.36+274.209C493.723+274.092+494.08+274.033+494.432+274.033C494.677+274.033+494.904+274.06+495.112+274.113C495.32+274.166+495.531+274.241+495.744+274.337L495.744+276.865C495.552+276.769+495.373+276.697+495.208+276.649C495.043+276.601+494.869+276.577+494.688+276.577C494.571+276.577+494.451+276.596+494.328+276.633C494.205+276.67+494.091+276.748+493.984+276.865C493.877+276.982+493.805+277.15+493.768+277.369C493.731+277.588+493.712+277.884+493.712+278.257L493.712+279.281L495.744+279.281L495.744+281.697L493.712+281.697Z" opacity="1" fill="#000000"/>
</g>
<g opacity="1">
<path d="M720.906+354.175L717.578+350.415L721.354+350.415L722.762+352.111L724.202+350.415L727.978+350.415L724.57+354.175L728.682+358.623L724.842+358.623L722.746+356.191L720.634+358.623L716.81+358.623L720.906+354.175Z" opacity="1" fill="#000000"/>
</g>
<g opacity="1">
<path d="M328.424+354.591C328.424+355.071+328.515+355.514+328.696+355.919C328.877+356.325+329.123+356.677+329.432+356.975C329.741+357.274+330.101+357.506+330.512+357.671C330.923+357.837+331.357+357.919+331.816+357.919C332.275+357.919+332.709+357.837+333.12+357.671C333.531+357.506+333.893+357.274+334.208+356.975C334.523+356.677+334.771+356.325+334.952+355.919C335.133+355.514+335.224+355.071+335.224+354.591C335.224+354.111+335.133+353.669+334.952+353.263C334.771+352.858+334.523+352.506+334.208+352.207C333.893+351.909+333.531+351.677+333.12+351.511C332.709+351.346+332.275+351.263+331.816+351.263C331.357+351.263+330.923+351.346+330.512+351.511C330.101+351.677+329.741+351.909+329.432+352.207C329.123+352.506+328.877+352.858+328.696+353.263C328.515+353.669+328.424+354.111+328.424+354.591ZM325.144+354.591C325.144+353.695+325.309+352.861+325.64+352.087C325.971+351.314+326.429+350.639+327.016+350.063C327.603+349.487+328.304+349.037+329.12+348.711C329.936+348.386+330.835+348.223+331.816+348.223C332.787+348.223+333.683+348.386+334.504+348.711C335.325+349.037+336.032+349.487+336.624+350.063C337.216+350.639+337.677+351.314+338.008+352.087C338.339+352.861+338.504+353.695+338.504+354.591C338.504+355.487+338.339+356.322+338.008+357.095C337.677+357.869+337.216+358.543+336.624+359.119C336.032+359.695+335.325+360.146+334.504+360.471C333.683+360.797+332.787+360.959+331.816+360.959C330.835+360.959+329.936+360.797+329.12+360.471C328.304+360.146+327.603+359.695+327.016+359.119C326.429+358.543+325.971+357.869+325.64+357.095C325.309+356.322+325.144+355.487+325.144+354.591Z" opacity="1" fill="#000000"/>
</g>
<g opacity="1">
<path d="M554.088+364.19L557+371.534L559.928+364.19L563.336+364.19L558.248+376.254L555.752+376.254L550.68+364.19L554.088+364.19Z" opacity="1" fill="#000000"/>
</g>
<path stroke="#000000" stroke-width="4.05645" d="M436.916+276.802L436.916+276.802C438.702+276.802+440.149+278.249+440.149+280.035L440.149+280.035C440.149+281.821+438.702+283.268+436.916+283.268L436.916+283.268C435.13+283.268+433.683+281.821+433.683+280.035L433.683+280.035C433.683+278.249+435.13+276.802+436.916+276.802Z" fill="#000000" stroke-linecap="round" opacity="1" stroke-linejoin="round"/>
</g>
</svg>
