<?xml version="1.0" encoding="UTF-8" standalone="no"?> <!-- Created with Vectornator for iOS (http://vectornator.io/) --><!DOCTYPE svg PUBLIC "-//W3C//DTD SVG 1.1//EN" "http://www.w3.org/Graphics/SVG/1.1/DTD/svg11.dtd">
<svg height="100%" style="fill-rule:nonzero;clip-rule:evenodd;stroke-linecap:round;stroke-linejoin:round;" xmlns:xlink="http://www.w3.org/1999/xlink" xmlns="http://www.w3.org/2000/svg" xml:space="preserve" width="100%" xmlns:vectornator="http://vectornator.io" version="1.1" viewBox="0 0 425.25 198.45">
<metadata>
<vectornator:setting key="DimensionsVisible" value="1"/>
<vectornator:setting key="PencilOnly" value="0"/>
<vectornator:setting key="SnapToPoints" value="0"/>
<vectornator:setting key="OutlineMode" value="0"/>
<vectornator:setting key="CMYKEnabledKey" value="0"/>
<vectornator:setting key="RulersVisible" value="1"/>
<vectornator:setting key="SnapToEdges" value="0"/>
<vectornator:setting key="GuidesVisible" value="1"/>
<vectornator:setting key="DisplayWhiteBackground" value="0"/>
<vectornator:setting key="doHistoryDisabled" value="0"/>
<vectornator:setting key="SnapToGuides" value="1"/>
<vectornator:setting key="TimeLapseWatermarkDisabled" value="0"/>
<vectornator:setting key="Units" value="Millimeters"/>
<vectornator:setting key="DynamicGuides" value="0"/>
<vectornator:setting key="IsolateActiveLayer" value="0"/>
<vectornator:setting key="SnapToGrid" value="1"/>
</metadata>
<defs/>
<g id="Layer 1" vectornator:layerName="Layer 1">
<path d="M124.457+401.103L125.643+401.232" opacity="1" fill="none"/>
<path d="M255.252+383.442L255.567+383.442C257.363+383.442+264.291+380.846+264.291+384.084L264.291+384.084C264.291+387.321+261.667+389.946+258.429+389.946L257.862+389.946C254.625+389.946+252+387.321+252+384.084L252+384.084C252+380.846+253.456+383.442+255.252+383.442Z" opacity="1" fill="none"/>
<path d="M78.604+9.79742L80.0367+9.95313" opacity="1" fill="none"/>
<path stroke="#ff9a0b" stroke-width="15.5892" d="M40+80L80+180L120+80L240+80C240+80+326.388+80+360+80L360+100" fill="none" stroke-linecap="round" opacity="1" stroke-linejoin="round"/>
<g opacity="1">
<path d="M156.175+122.845L156.175+178.705L137.555+178.705L137.555+122.845L122.26+122.845L122.26+107.075L171.47+107.075L171.47+122.845L156.175+122.845Z" opacity="1" fill="#ffffff"/>
<path d="M195.315+129.97L195.315+178.705L178.12+178.705L178.12+129.97L195.315+129.97ZM176.98+111.255C176.98+109.925+177.233+108.674+177.74+107.502C178.247+106.331+178.943+105.302+179.83+104.415C180.717+103.528+181.746+102.832+182.918+102.325C184.089+101.818+185.34+101.565+186.67+101.565C188+101.565+189.251+101.818+190.423+102.325C191.594+102.832+192.623+103.528+193.51+104.415C194.397+105.302+195.093+106.331+195.6+107.502C196.107+108.674+196.36+109.925+196.36+111.255C196.36+112.585+196.107+113.836+195.6+115.007C195.093+116.179+194.397+117.208+193.51+118.095C192.623+118.982+191.594+119.678+190.423+120.185C189.251+120.692+188+120.945+186.67+120.945C185.34+120.945+184.089+120.692+182.918+120.185C181.746+119.678+180.717+118.982+179.83+118.095C178.943+117.208+178.247+116.179+177.74+115.007C177.233+113.836+176.98+112.585+176.98+111.255Z" opacity="1" fill="#ffffff"/>
<path d="M242.72+147.26C242.15+144.853+240.978+142.922+239.205+141.465C237.432+140.008+235.278+139.28+232.745+139.28C230.085+139.28+227.916+139.977+226.238+141.37C224.559+142.763+223.498+144.727+223.055+147.26L242.72+147.26ZM222.58+157.235C222.58+164.645+226.063+168.35+233.03+168.35C236.767+168.35+239.585+166.83+241.485+163.79L258.11+163.79C254.753+174.937+246.362+180.51+232.935+180.51C228.818+180.51+225.05+179.893+221.63+178.657C218.21+177.422+215.281+175.665+212.843+173.385C210.404+171.105+208.52+168.382+207.19+165.215C205.86+162.048+205.195+158.502+205.195+154.575C205.195+150.522+205.828+146.864+207.095+143.602C208.362+140.341+210.167+137.57+212.51+135.29C214.853+133.01+217.687+131.253+221.013+130.017C224.338+128.782+228.09+128.165+232.27+128.165C236.387+128.165+240.092+128.782+243.385+130.017C246.678+131.253+249.465+133.042+251.745+135.385C254.025+137.728+255.767+140.594+256.97+143.982C258.173+147.371+258.775+151.187+258.775+155.43L258.775+157.235L222.58+157.235Z" opacity="1" fill="#ffffff"/>
<path d="M268.56+129.97L285.755+129.97L285.755+136.145C288.098+133.295+290.473+131.379+292.88+130.398C295.287+129.416+298.105+128.925+301.335+128.925C304.755+128.925+307.684+129.479+310.123+130.588C312.561+131.696+314.635+133.263+316.345+135.29C317.738+136.937+318.688+138.773+319.195+140.8C319.702+142.827+319.955+145.138+319.955+147.735L319.955+178.705L302.76+178.705L302.76+154.1C302.76+151.693+302.586+149.746+302.238+148.257C301.889+146.769+301.272+145.582+300.385+144.695C299.625+143.935+298.77+143.397+297.82+143.08C296.87+142.763+295.857+142.605+294.78+142.605C291.867+142.605+289.634+143.476+288.082+145.218C286.531+146.959+285.755+149.445+285.755+152.675L285.755+178.705L268.56+178.705L268.56+129.97Z" opacity="1" fill="#ffffff"/>
<path d="M330.785+169.585C330.785+168.065+331.07+166.624+331.64+165.262C332.21+163.901+333.002+162.713+334.015+161.7C335.028+160.687+336.216+159.895+337.577+159.325C338.939+158.755+340.38+158.47+341.9+158.47C343.42+158.47+344.861+158.755+346.222+159.325C347.584+159.895+348.772+160.687+349.785+161.7C350.798+162.713+351.59+163.901+352.16+165.262C352.73+166.624+353.015+168.065+353.015+169.585C353.015+171.105+352.73+172.546+352.16+173.907C351.59+175.269+350.798+176.457+349.785+177.47C348.772+178.483+347.584+179.275+346.222+179.845C344.861+180.415+343.42+180.7+341.9+180.7C340.38+180.7+338.939+180.415+337.577+179.845C336.216+179.275+335.028+178.483+334.015+177.47C333.002+176.457+332.21+175.269+331.64+173.907C331.07+172.546+330.785+171.105+330.785+169.585Z" opacity="1" fill="#ffffff"/>
</g>
<path stroke="#36ce43" stroke-width="15.5892" d="M80+80L60+40L80+80Z" fill="none" stroke-linecap="round" opacity="1" stroke-linejoin="round"/>
<path stroke="#36ce43" stroke-width="15.5892" d="M100+40L80+80" fill="none" stroke-linecap="round" opacity="1" stroke-linejoin="round"/>
</g>
</svg>
