<?xml version="1.0" encoding="UTF-8" standalone="no"?> <!-- Created with Vectornator for iOS (http://vectornator.io/) --><!DOCTYPE svg PUBLIC "-//W3C//DTD SVG 1.1//EN" "http://www.w3.org/Graphics/SVG/1.1/DTD/svg11.dtd">
<svg height="100%" style="fill-rule:nonzero;clip-rule:evenodd;stroke-linecap:round;stroke-linejoin:round;" xmlns:xlink="http://www.w3.org/1999/xlink" xmlns="http://www.w3.org/2000/svg" xml:space="preserve" width="100%" xmlns:vectornator="http://vectornator.io" version="1.1" viewBox="0 0 425.25 198.45">
<metadata>
<vectornator:setting key="DimensionsVisible" value="1"/>
<vectornator:setting key="PencilOnly" value="0"/>
<vectornator:setting key="SnapToPoints" value="0"/>
<vectornator:setting key="OutlineMode" value="0"/>
<vectornator:setting key="CMYKEnabledKey" value="0"/>
<vectornator:setting key="RulersVisible" value="1"/>
<vectornator:setting key="SnapToEdges" value="0"/>
<vectornator:setting key="GuidesVisible" value="1"/>
<vectornator:setting key="DisplayWhiteBackground" value="1"/>
<vectornator:setting key="doHistoryDisabled" value="0"/>
<vectornator:setting key="SnapToGuides" value="1"/>
<vectornator:setting key="TimeLapseWatermarkDisabled" value="0"/>
<vectornator:setting key="Units" value="Millimeters"/>
<vectornator:setting key="DynamicGuides" value="0"/>
<vectornator:setting key="IsolateActiveLayer" value="0"/>
<vectornator:setting key="SnapToGrid" value="1"/>
</metadata>
<defs/>
<g id="Layer 1" vectornator:layerName="Layer 1">
<path d="M124.457+401.103L125.643+401.232" opacity="1" fill="none"/>
<path d="M255.252+383.442L255.567+383.442C257.363+383.442+264.291+380.846+264.291+384.084L264.291+384.084C264.291+387.321+261.667+389.946+258.429+389.946L257.862+389.946C254.625+389.946+252+387.321+252+384.084L252+384.084C252+380.846+253.456+383.442+255.252+383.442Z" opacity="1" fill="none"/>
<path d="M78.604+9.79742L80.0367+9.95313" opacity="1" fill="none"/>
<path stroke="#ff9a0b" stroke-width="15.5892" d="M39.8285+64.4423L88.1638+185.28L136.499+64.4423L243.727+64.4423C243.727+64.4423+344.563+64.4423+378.175+64.4423L378.175+88.6099" fill="none" stroke-linecap="round" opacity="1" stroke-linejoin="round"/>
<g opacity="1">
<path d="M177.37+113.589L177.37+165.921L159.926+165.921L159.926+113.589L145.597+113.589L145.597+98.8153L191.699+98.8153L191.699+113.589L177.37+113.589Z" opacity="1" fill="#000000"/>
<path d="M214.038+120.264L214.038+165.921L197.929+165.921L197.929+120.264L214.038+120.264ZM196.861+102.731C196.861+101.485+197.099+100.313+197.573+99.2158C198.048+98.1182+198.701+97.154+199.531+96.3233C200.362+95.4927+201.326+94.84+202.424+94.3653C203.522+93.8907+204.693+93.6533+205.939+93.6533C207.185+93.6533+208.357+93.8907+209.455+94.3653C210.553+94.84+211.517+95.4927+212.347+96.3233C213.178+97.154+213.831+98.1182+214.305+99.2158C214.78+100.313+215.017+101.485+215.017+102.731C215.017+103.977+214.78+105.149+214.305+106.247C213.831+107.344+213.178+108.309+212.347+109.139C211.517+109.97+210.553+110.623+209.455+111.097C208.357+111.572+207.185+111.809+205.939+111.809C204.693+111.809+203.522+111.572+202.424+111.097C201.326+110.623+200.362+109.97+199.531+109.139C198.701+108.309+198.048+107.344+197.573+106.247C197.099+105.149+196.861+103.977+196.861+102.731Z" opacity="1" fill="#000000"/>
<path d="M258.449+136.462C257.915+134.208+256.818+132.398+255.156+131.033C253.495+129.669+251.478+128.986+249.104+128.986C246.612+128.986+244.58+129.639+243.008+130.944C241.436+132.25+240.442+134.089+240.026+136.462L258.449+136.462ZM239.581+145.807C239.581+152.749+242.845+156.22+249.371+156.22C252.872+156.22+255.512+154.796+257.292+151.948L272.867+151.948C269.723+162.391+261.861+167.612+249.282+167.612C245.426+167.612+241.895+167.034+238.691+165.877C235.487+164.72+232.743+163.073+230.459+160.937C228.175+158.801+226.409+156.25+225.163+153.283C223.917+150.317+223.294+146.994+223.294+143.315C223.294+139.518+223.888+136.091+225.074+133.036C226.261+129.98+227.952+127.384+230.147+125.248C232.343+123.112+234.998+121.466+238.113+120.309C241.228+119.152+244.743+118.573+248.659+118.573C252.516+118.573+255.987+119.152+259.072+120.309C262.158+121.466+264.768+123.142+266.904+125.337C269.04+127.533+270.672+130.217+271.799+133.392C272.927+136.566+273.49+140.141+273.49+144.116L273.49+145.807L239.581+145.807Z" opacity="1" fill="#000000"/>
<path d="M282.657+120.264L298.766+120.264L298.766+126.049C300.962+123.379+303.187+121.584+305.441+120.665C307.696+119.745+310.336+119.285+313.362+119.285C316.566+119.285+319.311+119.804+321.595+120.843C323.879+121.881+325.822+123.35+327.424+125.248C328.73+126.791+329.62+128.512+330.094+130.41C330.569+132.309+330.806+134.475+330.806+136.907L330.806+165.921L314.697+165.921L314.697+142.87C314.697+140.616+314.534+138.791+314.208+137.397C313.882+136.002+313.303+134.89+312.472+134.059C311.76+133.347+310.959+132.843+310.069+132.546C309.179+132.25+308.23+132.101+307.221+132.101C304.492+132.101+302.401+132.917+300.947+134.549C299.493+136.18+298.766+138.509+298.766+141.535L298.766+165.921L282.657+165.921L282.657+120.264Z" opacity="1" fill="#000000"/>
</g>
<path stroke="#36ce43" stroke-width="15.5892" d="M63.9962+16.107L88.1638+64.4423L112.331+16.107" fill="none" stroke-linecap="round" opacity="1" stroke-linejoin="round"/>
</g>
</svg>
