<svg xmlns="http://www.w3.org/2000/svg" width="826.479" height="656.719" viewBox="0 0 826.479 656.719">
  <g id="undraw_stepping_up_g6oo" transform="translate(0)">
    <path id="Path_287" data-name="Path 287" d="M763.4,738.5c-11.44-9.667-18.388-24.937-16.566-39.8s13.109-28.532,27.75-31.689,31.33,5.582,35.777,19.883c2.447-27.573,5.267-56.3,19.927-79.782,13.274-21.261,36.264-36.475,61.181-39.2s51.151,7.558,66.69,27.224,19.344,48.257,8.461,70.836c-8.018,16.633-22.789,29.011-38.265,39.082a246.959,246.959,0,0,1-168.9,36.951" transform="translate(-146.88 -89.669)" fill="#36ce43"/>
    <path id="Path_288" data-name="Path 288" d="M919.175,574.331a407.5,407.5,0,0,0-119.734,161.9c-1.142,2.8,3.4,4.017,4.532,1.249A402.959,402.959,0,0,1,922.5,577.654C924.844,575.743,921.5,572.436,919.175,574.331Z" transform="translate(-132.534 -87.959)" fill="#fff"/>
    <path id="Path_289" data-name="Path 289" d="M449.648,739.5H384.769a8.278,8.278,0,0,1-8.269-8.269V596.385a8.278,8.278,0,0,1,8.269-8.269h64.879a8.279,8.279,0,0,1,8.269,8.269V731.232a8.278,8.278,0,0,1-8.269,8.269Z" transform="translate(-247.584 -84.053)" fill="#f86d70"/>
    <path id="Path_290" data-name="Path 290" d="M570.92,768.259H506.041a9.552,9.552,0,0,1-9.541-9.541V496.657a9.552,9.552,0,0,1,9.541-9.541H570.92a9.552,9.552,0,0,1,9.541,9.541V758.718A9.552,9.552,0,0,1,570.92,768.259Zm-64.879-278.6a7,7,0,0,0-7,7V758.718a7,7,0,0,0,7,7H570.92a7,7,0,0,0,7-7V496.657a7,7,0,0,0-7-7Z" transform="translate(-214.927 -111.54)" fill="#3f3d56"/>
    <path id="Path_291" data-name="Path 291" d="M691.92,803.909H627.041a9.552,9.552,0,0,1-9.541-9.541V365.657a9.552,9.552,0,0,1,9.541-9.541H691.92a9.552,9.552,0,0,1,9.541,9.541V794.368A9.552,9.552,0,0,1,691.92,803.909ZM627.041,358.66a7,7,0,0,0-7,7V794.368a7,7,0,0,0,7,7H691.92a7,7,0,0,0,7-7V365.657a7,7,0,0,0-7-7Z" transform="translate(-181.998 -147.19)" fill="#3f3d56"/>
    <path id="Path_292" data-name="Path 292" d="M813.778,840.421H748.9a8.278,8.278,0,0,1-8.269-8.269V227.885a8.278,8.278,0,0,1,8.269-8.269h64.879a8.278,8.278,0,0,1,8.269,8.269V832.152a8.279,8.279,0,0,1-8.269,8.269Z" transform="translate(-148.49 -184.337)" fill="#f9a829"/>
    <path id="Path_293" data-name="Path 293" d="M489.721,426.194a12.792,12.792,0,0,0-13.334-14.386l-22.614-41.483-5.089,17.81,15.493,38.019a12.862,12.862,0,0,0,25.544.041Z" transform="translate(-227.94 -143.323)" fill="#a0616a"/>
    <path id="Path_294" data-name="Path 294" d="M68.816,361.507l12.6,9.2,41.465-44.211L104.286,312.92Z" transform="translate(18.728 85.158)" fill="#a0616a"/>
    <path id="Path_295" data-name="Path 295" d="M0,0H49.017V18.938H18.938A18.938,18.938,0,0,1,0,0H0Z" transform="matrix(-0.808, -0.59, 0.59, -0.808, 115.892, 485.291)" fill="#2f2e41"/>
    <path id="Path_296" data-name="Path 296" d="M121.2,402.246h15.6l7.419-60.157H121.2Z" transform="translate(32.983 93.096)" fill="#a0616a"/>
    <path id="Path_297" data-name="Path 297" d="M0,0H49.017V18.938H18.938A18.938,18.938,0,0,1,0,0Z" transform="translate(199.857 509.825) rotate(179.997)" fill="#2f2e41"/>
    <path id="Path_298" data-name="Path 298" d="M445.157,400.432s7.633,73.784-11.449,124.67l-13.994,96.683H395.544l2.544-114.493-8.9-101.771S406.993,359.723,445.157,400.432Z" transform="translate(-244.133 -139.719)" fill="#2f2e41"/>
    <path id="Path_299" data-name="Path 299" d="M98.192,210.845l25.443,87.778L74.021,377.5l24.807,20.99,56.61-88.414L138.9,201.94Z" transform="translate(20.144 54.956)" fill="#2f2e41"/>
    <circle id="Ellipse_6" data-name="Ellipse 6" cx="31.245" cy="31.245" r="31.245" transform="translate(151.975 6.478)" fill="#a0616a"/>
    <path id="Path_300" data-name="Path 300" d="M409.47,255.942s19.082-12.721,40.708,15.266L455.9,447.4s-16.538-22.9-50.886-1.272-41.981-2.544-41.981-2.544S338.867,261.666,409.47,255.942Z" transform="translate(-252.334 -175.237)" fill="#ccc"/>
    <path id="Path_301" data-name="Path 301" d="M434.495,266.982h0a22.27,22.27,0,0,1,21.037,21.067l4.037,76.7,26.715,72.512-15.266,12.721L421.4,363.473l-10.158-71.1a22.27,22.27,0,0,1,23.248-25.387Z" transform="translate(-238.189 -171.456)" fill="#ccc"/>
    <path id="Path_302" data-name="Path 302" d="M403.938,253.044c5.108,5.441,14.594,2.52,15.26-4.913a8.975,8.975,0,0,0-.011-1.734c-.344-3.293-2.246-6.282-1.79-9.759a5.116,5.116,0,0,1,.937-2.4c4.07-5.451,13.625,2.438,17.467-2.5,2.356-3.026-.413-7.789,1.394-11.171,2.386-4.463,9.452-2.261,13.884-4.706,4.93-2.72,4.636-10.284,1.39-14.886-3.958-5.611-10.9-8.606-17.751-9.037s-13.66,1.421-20.058,3.915c-7.27,2.833-14.479,6.748-18.952,13.141-5.44,7.774-5.964,18.225-3.243,27.315C394.118,241.846,399.767,248.6,403.938,253.044Z" transform="translate(-243.677 -191.884)" fill="#2f2e41"/>
    <path id="Path_303" data-name="Path 303" d="M1100.126,708.34H276.677a1.515,1.515,0,1,1,0-3.029h823.449a1.515,1.515,0,1,1,0,3.029Z" transform="translate(-275.162 -52.16)" fill="#3f3d56"/>
  </g>
</svg>
